<svg xmlns="http://www.w3.org/2000/svg" xmlns:xlink="http://www.w3.org/1999/xlink" enable-background="new 0 0 64 64" height="30" version="1.1" width="30" xml:space="preserve" style=""><rect id="backgroundrect" width="100%" height="100%" x="0" y="0" fill="none" stroke="none" class="" style=""/><g class="currentLayer" style=""><title>Layer 1</title><g id="SEO" class="selected" fill-opacity="1" fill="#1070f6"><g id="search_3_" fill="#1070f6"><g id="svg_1" fill="#1070f6"><g id="svg_2" fill="#1070f6"><g id="svg_3" fill="#1070f6"><path d="M12.856448332665238,4.914147583053037 c2.031318836561108,0 4.062637673122216,0.772613203335561 5.610335219212001,2.3172935936085652 c3.096489257995117,3.0888147641478922 3.096489257995117,8.110527577629979 0,11.19934234177787 C16.919086005787452,19.976009925110596 14.887220086318573,20.748623128446155 12.855901249757464,20.748623128446155 c-2.031865919468881,0 -4.063184756029988,-0.772613203335561 -5.610335219212001,-2.3178396100066823 c-3.095395092179571,-3.0882687477497757 -3.095395092179571,-8.109981561231862 0,-11.19934234177787 C8.79326357663525,5.686760786388597 10.824582413196358,4.914147583053037 12.856448332665238,4.914147583053037 L12.856448332665238,4.914147583053037 zM12.856448332665238,4.368131184936033 c-2.2676586527190383,0 -4.396905329771512,0.8796324173664937 -5.997669917915277,2.4772763982568478 S4.376663262183911,10.568147385554614 4.376663262183911,12.831385355749596 s0.8813505644222853,4.388333791666362 2.4821151525660503,5.985431756158599 C8.458995919985954,20.41500710919667 10.588242597038425,21.29463952656316 12.855901249757464,21.29463952656316 c2.267111569811266,0 4.396905329771512,-0.8796324173664937 5.997669917915277,-2.4778224146549648 C20.45488283872428,17.219719147415958 21.336233403146565,15.09407730954646 21.336233403146565,12.831385355749596 c0,-2.263237970194982 -0.8813505644222853,-4.388879808064479 -2.4826622354738235,-5.9859777725567165 C17.25280657952898,5.247763602302526 15.123559902476503,4.368131184936033 12.856448332665238,4.368131184936033 L12.856448332665238,4.368131184936033 z" fill="#1070f6" id="svg_4"/></g></g></g><g id="svg_5" fill="#1070f6"><g id="svg_6" fill="#1070f6"><g id="svg_7" fill="#1070f6"><path d="M12.856448332665238,6.55219677740405 c1.6111591633914524,0 3.2228654096906775,0.6126303986872788 4.449972371825491,1.8373451796637188 c2.455308090085174,2.4505215947491146 2.455308090085174,6.431527153420192 0,8.883140780965538 C16.079313742355918,18.497943535407863 14.46760749605669,19.110573934095143 12.856448332665238,19.110573934095143 s-3.2228654096906775,-0.6126303986872788 -4.450519454733264,-1.8378911960618356 c-2.4542139242696277,-2.4499755783509976 -2.4542139242696277,-6.432073169818308 0,-8.883140780965538 C9.633582922974561,7.164827176091327 11.245289169273786,6.55219677740405 12.856448332665238,6.55219677740405 L12.856448332665238,6.55219677740405 zM12.856448332665238,6.006180379287045 c-1.8283510777773289,0 -3.546191408184514,0.7098213175521058 -4.837307070528768,1.9973279843120013 c-2.666482092485548,2.662375957218513 -2.666482092485548,6.9933780270825885 0,9.655207967902983 C9.310256924480724,18.946769014660042 11.02809725488791,19.656590332212147 12.856448332665238,19.656590332212147 s3.5456443252767404,-0.7098213175521058 4.836759987620994,-1.9978740007101183 c2.6670291753933206,-2.662375957218513 2.6670291753933206,-6.9933780270825885 0,-9.655207967902983 C16.402639740849754,6.71600169683915 14.68534649335034,6.006180379287045 12.856448332665238,6.006180379287045 L12.856448332665238,6.006180379287045 z" fill="#1070f6" id="svg_8"/></g></g></g><g id="svg_9" fill="#1070f6"><g id="svg_10" fill="#1070f6"><path d="M12.856448332665238,18.291003320521522 c-1.4021734926221707,0 -2.8032528194287947,-0.5329120045621958 -3.870064489586123,-1.5970979644922372 c-0.10668116701573287,-0.10647319763281583 -0.10668116701573287,-0.2795603958359062 0,-0.38603359346872207 s0.28010644877977037,-0.10647319763281583 0.38678761579550325,0 c1.9202610062831906,1.9165175573906843 5.045745658390277,1.9165175573906843 6.966553747581241,0 c1.919713923375418,-1.9176095901869183 1.919713923375418,-5.037001272629362 0,-6.952972813621931 c-0.10668116701573287,-0.10647319763281583 -0.10668116701573287,-0.2795603958359062 0,-0.38603359346872207 s0.28010644877977037,-0.10647319763281583 0.38678761579550325,0 c2.1325291744991106,2.128917936258199 2.1325291744991106,5.59503003150494 0,7.725040000559374 C15.659701152094033,17.758091315959323 14.258074742379636,18.291003320521522 12.856448332665238,18.291003320521522 z" fill="#1070f6" id="svg_11"/></g></g></g><g id="svg_12" fill="#1070f6"><path d="M19.65121804720576,22.955075393236967 c-0.02461873084978451,0.1004670172535288 -0.08096827035040238,0.19328980493341952 -0.16631320396298868,0.24297729716206684 l-0.9475475962628169,0.5460163981170042 c-0.13950614148211216,0.07971839412508262 -0.3725634601934057,0.03603708227572228 -0.47377379813140846,-0.08572457450436972 l-1.420227228578679,-1.722135719661031 l-0.19421443225941112,-0.2506215267357049 l-0.1898377689972273,0.07152814815332754 c-0.5996028669191957,0.22714282161667382 -1.230936542489225,0.3947698558385942 -1.877041456569125,0.4979669550827077 l-0.20789150495373587,0.07535026294014656 l-0.40374718593646597,2.4761843654606133 C13.743269726165252,24.971513951483065 13.572032776032307,25.116754313382188 13.403531240438227,25.116754313382188 h-1.0941658155459777 c-0.16850153559408068,0 -0.3397384857270263,-0.1452403618991231 -0.36709263111567575,-0.3101373141304586 l-0.36709263111567575,-2.196077953226591 l-0.04157830099074718,-0.32269569128714953 l-0.20242067587600596,-0.03276098388702026 c-0.645010748264354,-0.1026510828459968 -1.2763444238343833,-0.27027811706791716 -1.8781356223846704,-0.4974209386845908 l-0.21172108530814673,-0.04422732824747736 l-1.5920112616193975,1.9449104100927685 c-0.10285158666132196,0.12394572237255998 -0.33426765664929636,0.16708101782380336 -0.47377379813140846,0.0862705909024867 l-0.9475475962628169,-0.5465624145151209 c-0.14552405346761507,-0.08408652531001869 -0.2210214947402875,-0.2948488549831823 -0.1624836236085778,-0.4515555612427626 l0.784516889746466,-2.0901507719918917 l0.1159815764478737,-0.2855665762151932 l-0.15591862871530193,-0.12722182076126198 c-0.2522052204833479,-0.20530216569199358 -0.4956571144423279,-0.42480075773502923 -0.7243377698914375,-0.6530356121479369 s-0.448607984373851,-0.47121215157497465 -0.6543111576964946,-0.7229257111069136 l-0.12692323460333343,-0.15452264066711224 l-2.380904814628048,0.8976509585043547 c-0.15482446289975588,0.057331721802285456 -0.37311054310117864,-0.02347870511903119 -0.45298464763603496,-0.16216687024075035 l-0.547082907772989,-0.9462464179367681 c-0.08370368488926734,-0.1452403618991231 -0.04431371552961213,-0.36528497034027596 0.08534493361258633,-0.47175816797309167 l1.7276878227470989,-1.4196426351042108 l0.24892272303670993,-0.1927437885353025 l-0.07166786091826156,-0.18946769014660056 c-0.22758648963356345,-0.5984339723362366 -0.3960880252276441,-1.2285368957632592 -0.4989396118889659,-1.873928278337558 l-0.039389969359655205,-0.20311810009952563 l-2.517128458663522,-0.40678221659716823 C0.692606961240604,13.716477937097258 0.547082907772989,13.545574804486638 0.547082907772989,13.3774017538666 v-1.0920327962340082 c0,-0.16817305062003735 0.14552405346761507,-0.3390761832306597 0.3107430916150578,-0.36637700313651 l2.204744118325145,-0.36692301953462697 l0.3194964181394256,-0.04368131184936036 l0.03227789155860635,-0.1998420017108236 c0.10285158666132196,-0.6442993497780648 0.27135312225540253,-1.2749482896032045 0.4989396118889659,-1.873928278337558 l0.03556038900524429,-0.21840655924680166 l-1.9410501567785645,-1.581809505344961 c-0.12911156623442543,-0.10647319763281583 -0.16959570140962663,-0.3276098388702027 -0.08534493361258633,-0.47230418437120875 l0.547082907772989,-0.9457004015386514 c0.0804211874426294,-0.1397801979179531 0.300348516367371,-0.21676851005245074 0.452437564728262,-0.16216687024075035 l2.0942333709550014,0.7829875148997838 l0.28667144367304614,0.11466344360457088 l0.12692323460333343,-0.15452264066711224 c0.20570317332264393,-0.25171355953193897 0.42563050224738547,-0.49469085669400586 0.6543111576964946,-0.7229257111069136 c0.22922773835688243,-0.2287808708110248 0.4732267152236354,-0.4482794628540605 0.7243377698914375,-0.6530356121479369 l0.15537154580752896,-0.12612978796502794 l-0.899951383286567,-2.3773553974014363 c-0.058537871131709815,-0.15670670625958028 0.016959570140962662,-0.3674690359327441 0.1624836236085778,-0.4515555612427626 l0.9480946791705899,-0.5460163981170042 c0.13731780985102018,-0.08081042692131667 0.3703751285623136,-0.037675131470073314 0.4726796323158624,0.0851785581062527 l1.422415560209771,1.7243197852534988 l0.19312026644386515,0.24843746114323692 l0.1898377689972273,-0.07152814815332754 c0.5996028669191957,-0.22714282161667382 1.230936542489225,-0.39531587223671116 1.8775885394768976,-0.4979669550827077 l0.20351484169155196,-0.03931318066442431 l0.40757676629087686,-2.512221447736336 C11.969626939165224,0.6912567600161275 12.140863889298169,0.5460163981170042 12.309365424892249,0.5460163981170042 h1.0941658155459777 c0.16850153559408068,0 0.3397384857270263,0.1452403618991231 0.36709263111567575,0.3101373141304586 l0.3676397140234487,2.2004460844115266 l0.04376663262183915,0.31832756010221364 l0.200232344244914,0.03276098388702026 c0.6455578311721268,0.1026510828459968 1.276891506742156,0.27027811706791716 1.8775885394768976,0.4974209386845908 l0.21883316310919557,0.0349450494794883 L18.06467761466409,2.003880181089405 c0.10121033793800298,-0.12285368957632596 0.3326264079259773,-0.16598898502756934 0.4726796323158624,-0.08463254170813567 l0.9480946791705899,0.5465624145151209 c0.14278863892875013,0.08190245971755065 0.2199273289247416,0.29757893697376736 0.1624836236085778,0.4515555612427626 l-0.7828756410231473,2.085782640806956 l-0.1203582397100576,0.2877506418076613 l0.15865404325416685,0.12885986995561297 c0.2494698059444829,0.20311810009952563 0.4929216999034631,0.4226166921425612 0.7237906869836646,0.6530356121479369 c0.22868065544910945,0.22823485441290778 0.448607984373851,0.47121215157497465 0.6543111576964946,0.7229257111069136 l0.16904861850185365,0.14141824711230405 l2.3393265136373,-0.8840005485514298 c0.15263613126866393,-0.05623968900605144 0.3720163772856327,0.022932688720914182 0.452437564728262,0.16216687024075035 l0.5476299906807619,0.9457004015386514 c0.08370368488926734,0.1452403618991231 0.04376663262183915,0.36637700313651 -0.08589201652035929,0.4728502007693258 l-1.7249524082082341,1.4174585695117428 l-0.25165813757557487,0.1943818377296536 l0.07166786091826156,0.18946769014660056 c0.22703940672579043,0.5967959231418851 0.39499385941209814,1.2268988465689081 0.49839252898119296,1.872836245541324 l0.07440327545712652,0.20694021488634465 l2.4826622354738235,0.40350611820846627 C25.020289704089873,11.946292774401934 25.165813757557487,12.117195907012555 25.165813757557487,12.285368957632592 v1.0920327962340082 c0,0.16817305062003735 -0.14552405346761507,0.3390761832306597 -0.3107430916150578,0.36692301953462697 l-2.204744118325145,0.36637700313651 l-0.32004350104719864,0.04695741023806239 l-0.03227789155860635,0.1971119197202386 c-0.10285158666132196,0.643753333379948 -0.2708060393476296,1.2738562568069707 -0.49839252898119296,1.8733822619394414 l-0.044860798437385115,0.21130834607128066 l1.9498034833029323,1.589999751316716 c0.12965864914219838,0.10592718123469881 0.17014278431739963,0.3270638224720856 0.08589201652035929,0.47175816797309167 l-0.547082907772989,0.9451543851405341 c-0.04759621297625006,0.08190245971755065 -0.1444298876520691,0.13868816512171905 -0.246187308497845,0.16380491943510134 l0.4146888440919258,0.41388042977268924 c0.12473490297224152,-0.0775343285326146 0.23251023580352034,-0.17854736218426046 0.3052722625373279,-0.30413113375117135 l0.547082907772989,-0.9457004015386514 c0.21828608020142265,-0.37784334749696696 0.12528198588001452,-0.8905527453288337 -0.21226816821591976,-1.1668370427760377 l-1.6718853661542539,-1.3743232740604991 c0.18381985701172435,-0.5148934634243347 0.32606141303270153,-1.049989533578999 0.4239892535240664,-1.5949138988997693 l2.1407354181157054,-0.3554566751741698 C25.375893594142315,14.210622777393148 25.712896665330476,13.81312283956397 25.712896665330476,13.3774017538666 v-1.0920327962340082 c0,-0.4362671020954863 -0.3375501540959343,-0.8332210235265485 -0.7681044025132763,-0.9047491716798758 l-2.1401883352079323,-0.35600269157228687 c-0.09902200630691103,-0.5465624145151209 -0.2407164794201152,-1.0811124682716682 -0.4239892535240664,-1.594367882501652 l1.6718853661542539,-1.3743232740604991 c0.3375501540959343,-0.2768303138453212 0.4305542484173423,-0.789539711677188 0.21226816821591976,-1.1673830591741547 l-0.5476299906807619,-0.9457004015386514 c-0.21007983658482776,-0.36473895394215894 -0.7194140237214803,-0.5492924965057061 -1.1182374634879892,-0.3996840034216473 l-2.019830095497875,0.7545946621977 c-0.17999027665731346,-0.21130834607128066 -0.3692809627467677,-0.4160644953651574 -0.5634953950061786,-0.6099003166966934 c-0.19585568098273012,-0.19547387052588755 -0.400464688489828,-0.3843955442743711 -0.6105445250746555,-0.5618508736623973 l0.7566156614500438,-2.0164385582460964 c0.15263613126866393,-0.40896628218963643 -0.023524565034238536,-0.8987429913005889 -0.4015588543053739,-1.1160575177511562 l-0.9470005133550438,-0.5460163981170042 c-0.36599846530012986,-0.21130834607128066 -0.9048751294565237,-0.11193336161398589 -1.16966325681865,0.21130834607128066 l-1.37646059595684,1.6680800962474476 c-0.5158991820299287,-0.18291549336919646 -1.0520404316474576,-0.32542577327773464 -1.5985762565126738,-0.4231627085406783 l-0.35669805586798886,-2.135470133035603 C14.238926840607581,0.33689211763819155 13.840650483748844,0 13.403531240438227,0 h-1.0941658155459777 c-0.4371192433106182,0 -0.835395600169354,0.3368921176381916 -0.9065163781798427,0.7666070229562737 l-0.35669805586798886,2.135470133035603 c-0.547082907772989,0.0988289680591778 -1.082677074482745,0.24024721517148184 -1.5980291736049006,0.4237087249387953 l-1.3770076788646128,-1.6686261126455648 c-0.2658822931776727,-0.3237877240833836 -0.804758957334067,-0.42152465934632716 -1.169116173910877,-0.21130834607128066 l-0.9475475962628169,0.5460163981170042 c-0.3780342892711355,0.21731452645056776 -0.5547420684818107,0.7081832683577545 -0.400464688489828,1.1160575177511562 l0.7560685785422706,2.0164385582460964 c-0.2111740024003738,0.17854736218426046 -0.4163300928152447,0.3674690359327441 -0.6110916079824287,0.5618508736623973 c-0.19421443225941112,0.19383582133153657 -0.3835051183488652,0.39859197062541313 -0.5634953950061786,0.6099003166966934 l-2.019830095497875,-0.7545946621977 c-0.3977292739509631,-0.14851646028782511 -0.9076105439953888,0.03439903308137127 -1.1182374634879892,0.3996840034216473 l-0.547082907772989,0.9451543851405341 c-0.21883316310919557,0.3772973310988501 -0.12582906878778743,0.8905527453288337 0.21172108530814673,1.1673830591741547 l1.671338283246481,1.3743232740604991 c-0.18327277410395137,0.514347447026218 -0.32606141303270153,1.049443517180882 -0.4239892535240664,1.5949138988997693 l-2.1396412523001596,0.35600269157228687 C0.33755015409593425,11.451601917707926 0,11.849101855537105 0,12.285368957632592 v1.0920327962340082 c0,0.4362671020954863 0.3375501540959343,0.8337670399246654 0.7681044025132763,0.9047491716798758 l2.1396412523001596,0.35600269157228687 c0.09902200630691103,0.5460163981170042 0.2407164794201152,1.0805664518735512 0.42453633643183936,1.5949138988997693 l-1.6718853661542539,1.3737772576623823 c-0.3375501540959343,0.2768303138453212 -0.4305542484173423,0.789539711677188 -0.21172108530814673,1.1673830591741547 l0.547082907772989,0.9457004015386514 c0.21062691949260076,0.3641929375440419 0.7177727749981616,0.5503845293019402 1.1182374634879892,0.4002300198197642 l2.019830095497875,-0.7551406785958168 c0.17999027665731346,0.21130834607128066 0.3692809627467677,0.4160644953651574 0.5634953950061786,0.6099003166966934 s0.3993705226742821,0.38275749508002 0.6110916079824287,0.5623968900605143 l-0.7560685785422706,2.015892541847979 c-0.1537302970842099,0.4078742493934021 0.02243039921869255,0.8987429913005889 0.400464688489828,1.1160575177511562 l0.9475475962628169,0.5465624145151209 c0.3649042994845837,0.21130834607128066 0.9026867978254319,0.11193336161398589 1.16966325681865,-0.21185436246939768 l1.37646059595684,-1.6680800962474476 c0.5158991820299287,0.18346150976731349 1.0520404316474576,0.32542577327773464 1.5980291736049006,0.4231627085406783 l0.35669805586798886,2.135470133035603 C11.474516907630669,25.325878593861002 11.872246181581632,25.662770711499192 12.309365424892249,25.662770711499192 h1.0941658155459777 c0.4371192433106182,0 0.8348485172615809,-0.3368921176381916 0.9065163781798427,-0.7666070229562737 l0.35669805586798886,-2.135470133035603 c0.547082907772989,-0.0982829516610608 1.082677074482745,-0.24024721517148184 1.5980291736049006,-0.4237087249387953 l1.37646059595684,1.6686261126455648 c0.2658822931776727,0.3237877240833836 0.8042118744262938,0.4231627085406783 1.16966325681865,0.21185436246939768 l0.9480946791705899,-0.5460163981170042 c0.12801740041887935,-0.07425823014391258 0.22266274346360654,-0.18619159175789854 0.29925435055182503,-0.3090452813342245 L19.65121804720576,22.955075393236967 z" fill="#1070f6" id="svg_13"/><g id="svg_14" fill="#1070f6"><path d="M27.627686842535937,29.57716226959999 c-0.3665455482079027,0 -0.7095665313815668,-0.14141824711230405 -0.9672425809426445,-0.39804595422729616 L19.454815283315256,21.986988319375524 c-0.5334058350786639,-0.5323659881640789 -0.5334058350786639,-1.3983479955776474 0,-1.9301679673436094 l0.6411811679099428,-0.6399312185931291 c0.2576760495610778,-0.257173723513109 0.600697032734742,-0.39804595422729616 0.9672425809426445,-0.39804595422729616 l0,0 c0.3665455482079027,0 0.7095665313815668,0.14141824711230405 0.9672425809426445,0.39804595422729616 l7.2061760611858094,7.192127995997178 c0.5334058350786639,0.5323659881640789 0.5334058350786639,1.3983479955776474 0,1.9301679673436094 l-0.6411811679099428,0.6399312185931291 C28.337253373917502,29.43574402248769 27.99423239074384,29.57716226959999 27.627686842535937,29.57716226959999 zM21.06269194926007,19.564313560930376 c-0.2199273289247416,0 -0.4261775851551583,0.08463254170813567 -0.5804549651471411,0.23860916597713092 l-0.6411811679099428,0.6399312185931291 c-0.32004350104719864,0.3194195928984476 -0.32004350104719864,0.8386811875077185 0,1.1581007804061658 l7.2061760611858094,7.192127995997178 c0.3080076770761928,0.30740723213987337 0.8529022532180897,0.30740723213987337 1.1603628473865093,0 l0.6411811679099428,-0.6399312185931291 c0.32004350104719864,-0.3194195928984476 0.32004350104719864,-0.8386811875077185 0,-1.1581007804061658 L21.64314691440721,19.802922726907507 C21.48886953441523,19.648946102638508 21.282619278184814,19.564313560930376 21.06269194926007,19.564313560930376 z" fill="#1070f6" id="svg_15"/></g><g id="svg_16" fill="#1070f6"><path d="M17.997386417008013,19.213771033339256 c-0.14388280474429613,0.11630149279892193 -0.29323643856632214,0.2238667232279718 -0.4442313211116671,0.3292478880645537 l1.8392927359327889,1.8357071304693677 c-0.08479785070481331,-0.2457073791526519 -0.08260951907372135,-0.515439479822452 0.013129989786551744,-0.7589627933826357 L17.997386417008013,19.213771033339256 z" fill="#1070f6" id="svg_17"/><path d="M19.581738517918588,17.519482149982192 c-0.10558700120018687,0.15015450948217618 -0.21390941693923876,0.2992169861681183 -0.3298909933871125,0.44336531527100737 l1.4087384875154465,1.4054462087531685 c0.24345189395898012,-0.0955528696704758 0.5137108503988367,-0.09773693526294376 0.7604452418044546,-0.013104393554808103 L19.581738517918588,17.519482149982192 z" fill="#1070f6" id="svg_18"/></g></g></g></g></svg>